<mxfile host="app.diagrams.net" modified="2022-07-24T18:38:47.776Z" agent="5.0 (Macintosh; Intel Mac OS X 10_15_7) AppleWebKit/537.36 (KHTML, like Gecko) Chrome/103.0.0.0 Safari/537.36" etag="LLu83KOb5BbNISubgJTl" version="20.2.0" type="github">
  <diagram id="hpA-0SRSyf_l64MmHkIg" name="第 1 页">
    <mxGraphModel dx="814" dy="625" grid="1" gridSize="10" guides="1" tooltips="1" connect="1" arrows="1" fold="1" page="1" pageScale="1" pageWidth="827" pageHeight="1169" math="0" shadow="0">
      <root>
        <mxCell id="0" />
        <mxCell id="1" parent="0" />
        <mxCell id="6WS6Z0JtrDbtUdzg7VsC-3" style="edgeStyle=orthogonalEdgeStyle;rounded=0;orthogonalLoop=1;jettySize=auto;html=1;entryX=0;entryY=0.5;entryDx=0;entryDy=0;fontSize=18;strokeWidth=2;" edge="1" parent="1" source="6WS6Z0JtrDbtUdzg7VsC-1" target="6WS6Z0JtrDbtUdzg7VsC-2">
          <mxGeometry relative="1" as="geometry" />
        </mxCell>
        <mxCell id="6WS6Z0JtrDbtUdzg7VsC-1" value="&lt;b&gt;&lt;font style=&quot;font-size: 18px;&quot;&gt;New&lt;br&gt;Task&lt;/font&gt;&lt;/b&gt;" style="ellipse;whiteSpace=wrap;html=1;aspect=fixed;fillColor=#e51400;fontColor=#ffffff;strokeColor=#B20000;" vertex="1" parent="1">
          <mxGeometry x="100" y="190" width="60" height="60" as="geometry" />
        </mxCell>
        <mxCell id="6WS6Z0JtrDbtUdzg7VsC-27" style="edgeStyle=orthogonalEdgeStyle;rounded=0;orthogonalLoop=1;jettySize=auto;html=1;entryX=0;entryY=0.5;entryDx=0;entryDy=0;fontSize=18;strokeWidth=2;" edge="1" parent="1" source="6WS6Z0JtrDbtUdzg7VsC-2" target="6WS6Z0JtrDbtUdzg7VsC-20">
          <mxGeometry relative="1" as="geometry">
            <Array as="points">
              <mxPoint x="580" y="220" />
              <mxPoint x="580" y="290" />
              <mxPoint x="225" y="290" />
              <mxPoint x="225" y="352" />
            </Array>
          </mxGeometry>
        </mxCell>
        <mxCell id="6WS6Z0JtrDbtUdzg7VsC-2" value="" style="rounded=1;whiteSpace=wrap;html=1;fontSize=18;strokeWidth=2;" vertex="1" parent="1">
          <mxGeometry x="240" y="185" width="310" height="70" as="geometry" />
        </mxCell>
        <mxCell id="6WS6Z0JtrDbtUdzg7VsC-4" value="&lt;b&gt;&lt;font style=&quot;font-size: 18px;&quot;&gt;Task 2&lt;/font&gt;&lt;/b&gt;" style="ellipse;whiteSpace=wrap;html=1;aspect=fixed;fillColor=#60a917;fontColor=#ffffff;strokeColor=#2D7600;" vertex="1" parent="1">
          <mxGeometry x="260" y="190" width="60" height="60" as="geometry" />
        </mxCell>
        <mxCell id="6WS6Z0JtrDbtUdzg7VsC-5" value="&lt;b&gt;&lt;font style=&quot;font-size: 18px;&quot;&gt;Task 3&lt;/font&gt;&lt;/b&gt;" style="ellipse;whiteSpace=wrap;html=1;aspect=fixed;fillColor=#60a917;fontColor=#ffffff;strokeColor=#2D7600;" vertex="1" parent="1">
          <mxGeometry x="332" y="190" width="60" height="60" as="geometry" />
        </mxCell>
        <mxCell id="6WS6Z0JtrDbtUdzg7VsC-6" value="&lt;b&gt;&lt;font style=&quot;font-size: 18px;&quot;&gt;Task 4&lt;/font&gt;&lt;/b&gt;" style="ellipse;whiteSpace=wrap;html=1;aspect=fixed;fillColor=#60a917;fontColor=#ffffff;strokeColor=#2D7600;" vertex="1" parent="1">
          <mxGeometry x="405" y="190" width="60" height="60" as="geometry" />
        </mxCell>
        <mxCell id="6WS6Z0JtrDbtUdzg7VsC-17" style="edgeStyle=orthogonalEdgeStyle;rounded=0;orthogonalLoop=1;jettySize=auto;html=1;fontSize=18;strokeWidth=2;exitX=1;exitY=0.5;exitDx=0;exitDy=0;" edge="1" parent="1" source="6WS6Z0JtrDbtUdzg7VsC-2" target="6WS6Z0JtrDbtUdzg7VsC-16">
          <mxGeometry relative="1" as="geometry">
            <mxPoint x="560" y="220" as="sourcePoint" />
          </mxGeometry>
        </mxCell>
        <mxCell id="6WS6Z0JtrDbtUdzg7VsC-7" value="&lt;b&gt;&lt;font style=&quot;font-size: 18px;&quot;&gt;Task 5&lt;/font&gt;&lt;/b&gt;" style="ellipse;whiteSpace=wrap;html=1;aspect=fixed;fillColor=#e51400;fontColor=#ffffff;strokeColor=#B20000;strokeWidth=2;" vertex="1" parent="1">
          <mxGeometry x="479" y="190" width="60" height="60" as="geometry" />
        </mxCell>
        <mxCell id="6WS6Z0JtrDbtUdzg7VsC-11" value="&lt;span style=&quot;color: rgba(0, 0, 0, 0); font-family: monospace; font-size: 0px; text-align: start;&quot;&gt;%3CmxGraphModel%3E%3Croot%3E%3CmxCell%20id%3D%220%22%2F%3E%3CmxCell%20id%3D%221%22%20parent%3D%220%22%2F%3E%3CmxCell%20id%3D%222%22%20value%3D%22%26lt%3Bb%26gt%3B%26lt%3Bfont%20style%3D%26quot%3Bfont-size%3A%2018px%3B%26quot%3B%26gt%3BTask%203%26lt%3B%2Ffont%26gt%3B%26lt%3B%2Fb%26gt%3B%22%20style%3D%22ellipse%3BwhiteSpace%3Dwrap%3Bhtml%3D1%3Baspect%3Dfixed%3BfillColor%3D%23e51400%3BfontColor%3D%23ffffff%3BstrokeColor%3D%23B20000%3B%22%20vertex%3D%221%22%20parent%3D%221%22%3E%3CmxGeometry%20x%3D%22330%22%20y%3D%22190%22%20width%3D%2260%22%20height%3D%2260%22%20as%3D%22geometry%22%2F%3E%3C%2FmxCell%3E%3C%2Froot%3E%3C%2FmxGraphModel%3E&lt;/span&gt;" style="text;html=1;align=center;verticalAlign=middle;resizable=0;points=[];autosize=1;strokeColor=none;fillColor=none;fontSize=18;" vertex="1" parent="1">
          <mxGeometry x="350" y="260" width="20" height="40" as="geometry" />
        </mxCell>
        <mxCell id="6WS6Z0JtrDbtUdzg7VsC-12" value="&lt;b&gt;Level 1Queue&lt;/b&gt;" style="text;html=1;align=center;verticalAlign=middle;resizable=0;points=[];autosize=1;strokeColor=none;fillColor=none;fontSize=18;" vertex="1" parent="1">
          <mxGeometry x="335" y="145" width="140" height="40" as="geometry" />
        </mxCell>
        <mxCell id="6WS6Z0JtrDbtUdzg7VsC-19" style="edgeStyle=orthogonalEdgeStyle;rounded=0;orthogonalLoop=1;jettySize=auto;html=1;fontSize=18;strokeWidth=2;" edge="1" parent="1" source="6WS6Z0JtrDbtUdzg7VsC-16" target="6WS6Z0JtrDbtUdzg7VsC-18">
          <mxGeometry relative="1" as="geometry">
            <mxPoint x="730" y="352.5" as="targetPoint" />
          </mxGeometry>
        </mxCell>
        <mxCell id="6WS6Z0JtrDbtUdzg7VsC-16" value="" style="html=1;verticalLabelPosition=bottom;align=center;labelBackgroundColor=#ffffff;verticalAlign=top;strokeWidth=2;strokeColor=#FF0000;shadow=0;dashed=0;shape=mxgraph.ios7.icons.alarm_clock;fontSize=18;" vertex="1" parent="1">
          <mxGeometry x="610" y="320" width="60" height="65" as="geometry" />
        </mxCell>
        <mxCell id="6WS6Z0JtrDbtUdzg7VsC-18" value="" style="sketch=0;pointerEvents=1;shadow=0;dashed=0;html=1;strokeColor=none;fillColor=#434445;aspect=fixed;labelPosition=center;verticalLabelPosition=bottom;verticalAlign=top;align=center;outlineConnect=0;shape=mxgraph.vvd.cpu;fontSize=18;" vertex="1" parent="1">
          <mxGeometry x="720" y="316.5" width="72" height="72" as="geometry" />
        </mxCell>
        <mxCell id="6WS6Z0JtrDbtUdzg7VsC-28" style="edgeStyle=orthogonalEdgeStyle;rounded=0;orthogonalLoop=1;jettySize=auto;html=1;entryX=-0.064;entryY=0.471;entryDx=0;entryDy=0;entryPerimeter=0;fontSize=18;strokeWidth=2;" edge="1" parent="1" source="6WS6Z0JtrDbtUdzg7VsC-20" target="6WS6Z0JtrDbtUdzg7VsC-16">
          <mxGeometry relative="1" as="geometry" />
        </mxCell>
        <mxCell id="6WS6Z0JtrDbtUdzg7VsC-29" style="edgeStyle=orthogonalEdgeStyle;rounded=0;orthogonalLoop=1;jettySize=auto;html=1;exitX=1;exitY=0.5;exitDx=0;exitDy=0;entryX=0;entryY=0.5;entryDx=0;entryDy=0;fontSize=18;strokeWidth=2;" edge="1" parent="1" source="6WS6Z0JtrDbtUdzg7VsC-20" target="6WS6Z0JtrDbtUdzg7VsC-2">
          <mxGeometry relative="1" as="geometry">
            <Array as="points">
              <mxPoint x="575" y="352" />
              <mxPoint x="575" y="450" />
              <mxPoint x="200" y="450" />
              <mxPoint x="200" y="220" />
            </Array>
          </mxGeometry>
        </mxCell>
        <mxCell id="6WS6Z0JtrDbtUdzg7VsC-20" value="" style="rounded=1;whiteSpace=wrap;html=1;fontSize=18;strokeWidth=2;" vertex="1" parent="1">
          <mxGeometry x="245" y="316.5" width="310" height="70" as="geometry" />
        </mxCell>
        <mxCell id="6WS6Z0JtrDbtUdzg7VsC-21" value="&lt;b&gt;&lt;font style=&quot;font-size: 18px;&quot;&gt;Task 8&lt;/font&gt;&lt;/b&gt;" style="ellipse;whiteSpace=wrap;html=1;aspect=fixed;fillColor=#1ba1e2;fontColor=#ffffff;strokeColor=#006EAF;" vertex="1" parent="1">
          <mxGeometry x="400" y="321.5" width="60" height="60" as="geometry" />
        </mxCell>
        <mxCell id="6WS6Z0JtrDbtUdzg7VsC-22" value="&lt;b&gt;&lt;font style=&quot;font-size: 18px;&quot;&gt;Task 9&lt;/font&gt;&lt;/b&gt;" style="ellipse;whiteSpace=wrap;html=1;aspect=fixed;fillColor=#1ba1e2;fontColor=#ffffff;strokeColor=#006EAF;" vertex="1" parent="1">
          <mxGeometry x="470" y="321" width="60" height="60" as="geometry" />
        </mxCell>
        <mxCell id="6WS6Z0JtrDbtUdzg7VsC-25" value="&lt;span style=&quot;color: rgba(0, 0, 0, 0); font-family: monospace; font-size: 0px; text-align: start;&quot;&gt;%3CmxGraphModel%3E%3Croot%3E%3CmxCell%20id%3D%220%22%2F%3E%3CmxCell%20id%3D%221%22%20parent%3D%220%22%2F%3E%3CmxCell%20id%3D%222%22%20value%3D%22%26lt%3Bb%26gt%3B%26lt%3Bfont%20style%3D%26quot%3Bfont-size%3A%2018px%3B%26quot%3B%26gt%3BTask%203%26lt%3B%2Ffont%26gt%3B%26lt%3B%2Fb%26gt%3B%22%20style%3D%22ellipse%3BwhiteSpace%3Dwrap%3Bhtml%3D1%3Baspect%3Dfixed%3BfillColor%3D%23e51400%3BfontColor%3D%23ffffff%3BstrokeColor%3D%23B20000%3B%22%20vertex%3D%221%22%20parent%3D%221%22%3E%3CmxGeometry%20x%3D%22330%22%20y%3D%22190%22%20width%3D%2260%22%20height%3D%2260%22%20as%3D%22geometry%22%2F%3E%3C%2FmxCell%3E%3C%2Froot%3E%3C%2FmxGraphModel%3E&lt;/span&gt;" style="text;html=1;align=center;verticalAlign=middle;resizable=0;points=[];autosize=1;strokeColor=none;fillColor=none;fontSize=18;" vertex="1" parent="1">
          <mxGeometry x="355" y="391.5" width="20" height="40" as="geometry" />
        </mxCell>
        <mxCell id="6WS6Z0JtrDbtUdzg7VsC-26" value="&lt;b&gt;Level 2 Queue&lt;/b&gt;" style="text;html=1;align=center;verticalAlign=middle;resizable=0;points=[];autosize=1;strokeColor=none;fillColor=none;fontSize=18;" vertex="1" parent="1">
          <mxGeometry x="330" y="386.5" width="150" height="40" as="geometry" />
        </mxCell>
        <mxCell id="6WS6Z0JtrDbtUdzg7VsC-30" value="&lt;b&gt;&lt;font style=&quot;font-size: 18px;&quot;&gt;Task 5&lt;/font&gt;&lt;/b&gt;" style="ellipse;whiteSpace=wrap;html=1;aspect=fixed;fillColor=#e51400;fontColor=#ffffff;strokeColor=#B20000;" vertex="1" parent="1">
          <mxGeometry x="310" y="321" width="60" height="60" as="geometry" />
        </mxCell>
        <mxCell id="6WS6Z0JtrDbtUdzg7VsC-32" style="rounded=0;orthogonalLoop=1;jettySize=auto;html=1;fontSize=18;fontColor=#000000;strokeWidth=2;dashed=1;fillColor=#e51400;strokeColor=#B20000;" edge="1" parent="1" source="6WS6Z0JtrDbtUdzg7VsC-7" target="6WS6Z0JtrDbtUdzg7VsC-30">
          <mxGeometry relative="1" as="geometry" />
        </mxCell>
      </root>
    </mxGraphModel>
  </diagram>
</mxfile>
